<svg width="25" height="24" viewBox="0 0 25 24" fill="none" xmlns="http://www.w3.org/2000/svg">
<path d="M24.2187 11.967C24.1993 5.33672 18.7637 -0.0194826 12.0743 4.71747e-05C5.38486 0.019577 -0.0193505 5.40742 6.73596e-06 12.0378C0.0174961 18.0283 4.4602 22.9808 10.2519 23.8651L10.2274 15.4775L7.15122 15.4865L7.14109 12.0169L10.2172 12.0079L10.2095 9.36354C10.2007 6.35569 12.0025 4.68896 14.7696 4.68088C16.0948 4.67701 17.4812 4.9072 17.4812 4.9072L17.4898 7.8594L15.9625 7.86386C14.4586 7.86825 13.9921 8.79496 13.9948 9.74402L14.0014 11.9969L17.3598 11.9871L16.8328 15.4582L14.0115 15.4664L14.036 23.854C19.8224 22.936 24.2361 17.9576 24.2187 11.967Z" fill="#FAFAFA"/>
</svg>
