<svg width="22" height="22" viewBox="0 0 22 22" fill="none" xmlns="http://www.w3.org/2000/svg">
<path d="M10.9305 5.28432C7.82508 5.29339 5.32746 7.78338 5.33645 10.8613C5.34543 13.9393 7.85755 16.4146 10.963 16.4056C14.0685 16.3965 16.5661 13.9065 16.5571 10.8286C16.5481 7.75063 14.036 5.27526 10.9305 5.28432ZM10.9573 14.4601C8.9505 14.4659 7.30515 12.8495 7.29933 10.8556C7.29351 8.86171 8.92451 7.23569 10.9362 7.22982C12.9479 7.22394 14.5884 8.84041 14.5942 10.8343C14.6 12.8282 12.9642 14.4542 10.9573 14.4601ZM18.0783 5.03599C18.0804 5.75709 17.4961 6.3347 16.7735 6.33681C16.0459 6.33894 15.4632 5.75989 15.4611 5.04364C15.459 4.32738 16.0433 3.74493 16.7659 3.74282C17.4886 3.74071 18.0762 4.31974 18.0783 5.03599ZM21.7979 6.3415C21.7099 4.60435 21.305 3.06654 20.0171 1.80234C18.7341 0.538111 17.1802 0.145803 15.427 0.0638087C13.6201 -0.0325471 8.20509 -0.0167379 6.39875 0.0901668C4.65096 0.177542 3.09939 0.578918 1.81891 1.85063C0.538442 3.12233 0.147428 4.66246 0.0646105 6.40011C-0.0327004 8.19104 -0.0170313 13.5581 0.0907351 15.3484C0.178815 17.0856 0.583697 18.6234 1.87157 19.8876C3.15945 21.1518 4.70845 21.5441 6.46163 21.6261C8.26856 21.7225 13.6836 21.7067 15.4899 21.5997C17.2426 21.5124 18.7942 21.111 20.0697 19.8345C21.3453 18.5628 21.7412 17.0226 21.824 15.285C21.9214 13.494 21.9057 8.13183 21.7979 6.3415ZM19.4957 17.2131C19.1176 18.1627 18.3824 18.8957 17.4216 19.2808C15.9829 19.8512 12.5645 19.7305 10.9727 19.7352C9.38094 19.7398 5.95847 19.8756 4.52129 19.3185C3.56316 18.9438 2.82373 18.2151 2.4352 17.2629C1.85975 15.8369 1.98169 12.4488 1.97709 10.8711C1.97248 9.29345 1.83562 5.9013 2.39787 4.47683C2.77596 3.52716 3.51113 2.79424 4.47192 2.40911C5.91069 1.83868 9.32903 1.95937 10.9208 1.95472C12.5126 1.95007 15.9351 1.81425 17.3723 2.37145C18.3304 2.74614 19.0698 3.47476 19.4583 4.42702C20.0338 5.85301 19.9119 9.24107 19.9165 10.8188C19.9211 12.3965 20.0628 15.7886 19.4957 17.2131Z" fill="#FAFAFA"/>
</svg>
