<svg width="53" height="57" viewBox="0 0 53 57" fill="none" xmlns="http://www.w3.org/2000/svg">
<path d="M32.47 0.999996L7.2813 1.07353C5.61119 1.07841 4.01116 1.6582 2.8332 2.68536C1.65524 3.71251 0.995841 5.1029 1.00007 6.55064L1.12756 50.2204C1.13179 51.6682 1.79929 53.0547 2.98323 54.0749C4.16717 55.0952 5.77056 55.6656 7.44067 55.6608L45.2237 55.5505C46.8938 55.5456 48.4939 54.9658 49.6718 53.9386C50.8498 52.9115 51.5092 51.5211 51.5049 50.0734L51.4093 17.321L32.47 0.999996Z" stroke="white" stroke-width="2" stroke-linecap="round" stroke-linejoin="round"/>
<path d="M32.47 1L32.5178 17.3762L51.4093 17.321" stroke="white" stroke-width="2" stroke-linecap="round" stroke-linejoin="round"/>
<path d="M38.8548 31.0046L13.6661 31.0781" stroke="white" stroke-width="2" stroke-linecap="round" stroke-linejoin="round"/>
<path d="M38.8867 41.9221L13.698 41.9956" stroke="white" stroke-width="2" stroke-linecap="round" stroke-linejoin="round"/>
<path d="M19.9315 20.1423L16.7829 20.1515L13.6343 20.1607" stroke="white" stroke-width="2" stroke-linecap="round" stroke-linejoin="round"/>
</svg>
