<svg width="25" height="21" viewBox="0 0 25 21" fill="none" xmlns="http://www.w3.org/2000/svg">
<path d="M22.3926 5.00048C22.4091 5.22054 22.4098 5.44069 22.4104 5.66079C22.43 12.3742 17.2972 20.1247 7.87462 20.1522C4.9717 20.1607 2.2726 19.3353 -2.56294e-05 17.8955C0.412562 17.9414 0.809139 17.956 1.23746 17.9547C3.63271 17.9477 5.83534 17.1395 7.59213 15.7665C5.33947 15.7259 3.44751 14.2692 2.79125 12.2586C3.10867 12.3049 3.42599 12.3354 3.75915 12.3344C4.21915 12.3331 4.67903 12.2688 5.10698 12.1576C2.7579 11.6927 0.991103 9.65395 0.983897 7.18553L0.983713 7.12267C1.66689 7.49802 2.46079 7.73153 3.30155 7.76049C1.91882 6.8526 1.01013 5.29874 1.00499 3.53782C1.00223 2.59449 1.25347 1.72902 1.69545 0.973041C4.22665 4.04727 8.02377 6.04863 12.2756 6.25637C12.1952 5.87926 12.1465 5.48638 12.1453 5.09331C12.1371 2.29469 14.4148 0.00830098 17.2542 1.12173e-05C18.7294 -0.00429575 20.0637 0.604986 21.0025 1.59277C22.1598 1.36928 23.269 0.941514 24.2508 0.356928C23.8735 1.53725 23.0674 2.53012 22.0065 3.16208C23.0373 3.04906 24.0358 2.76308 24.9547 2.36737C24.2597 3.3756 23.3899 4.27429 22.3926 5.00048Z" fill="#FAFAFA"/>
</svg>
